<svg width="311" height="190" viewBox="0 0 311 190" fill="none" xmlns="http://www.w3.org/2000/svg">
    <defs>
        <linearGradient id="paint0_linear" x1="155.5" y1="0" x2="155.5" y2="190" gradientUnits="userSpaceOnUse">
            <stop stop-color="#525252" />
            <stop offset="1" stop-color="#525252" stop-opacity="0" />
        </linearGradient>
    </defs>
    <rect width="311" height="190" rx="16" fill="#272727" />
    <rect width="311" height="190" rx="16" fill="url(#paint0_linear)" />
    <path d="M20.5987 21.52C19.7227 21.52 18.9787 21.82 18.4747 22.432V21.592H17.0467V30.328H18.5467V27.22C19.0627 27.808 19.7827 28.084 20.5987 28.084C22.4707 28.084 23.8507 26.788 23.8507 24.796C23.8507 22.816 22.4707 21.52 20.5987 21.52ZM20.4307 26.8C19.3507 26.8 18.5227 26.02 18.5227 24.796C18.5227 23.572 19.3507 22.792 20.4307 22.792C21.5107 22.792 22.3267 23.572 22.3267 24.796C22.3267 26.02 21.5107 26.8 20.4307 26.8ZM25.0332 28H26.5332V19.096H25.0332V28ZM30.71 21.52C29.678 21.52 28.682 21.784 27.998 22.312L28.586 23.404C29.066 23.008 29.81 22.768 30.53 22.768C31.598 22.768 32.126 23.284 32.126 24.16V24.256H30.47C28.526 24.256 27.806 25.096 27.806 26.164C27.806 27.28 28.73 28.084 30.194 28.084C31.154 28.084 31.85 27.772 32.21 27.22V28H33.626V24.244C33.626 22.396 32.558 21.52 30.71 21.52ZM30.506 26.992C29.738 26.992 29.282 26.644 29.282 26.104C29.282 25.636 29.558 25.252 30.578 25.252H32.126V25.996C31.874 26.656 31.238 26.992 30.506 26.992ZM38.743 26.584C38.515 26.764 38.215 26.848 37.903 26.848C37.327 26.848 37.015 26.512 37.015 25.888V22.84H38.731V21.64H37.015V20.176H35.515V21.64H34.459V22.84H35.515V25.924C35.515 27.34 36.319 28.084 37.723 28.084C38.263 28.084 38.803 27.94 39.163 27.652L38.743 26.584ZM40.913 20.536C41.477 20.536 41.873 20.128 41.873 19.6C41.873 19.108 41.465 18.736 40.913 18.736C40.361 18.736 39.953 19.132 39.953 19.636C39.953 20.14 40.361 20.536 40.913 20.536ZM40.157 28H41.657V21.592H40.157V28ZM47.0217 21.52C46.0857 21.52 45.3057 21.832 44.8137 22.42V21.592H43.3857V28H44.8857V24.76C44.8857 23.476 45.6057 22.828 46.6737 22.828C47.6337 22.828 48.1977 23.38 48.1977 24.52V28H49.6977V24.328C49.6977 22.396 48.5577 21.52 47.0217 21.52ZM56.0646 21.592V24.832C56.0646 26.116 55.3566 26.764 54.3126 26.764C53.3646 26.764 52.8126 26.212 52.8126 25.048V21.592H51.3126V25.252C51.3126 27.184 52.4286 28.084 54.0726 28.084C54.9006 28.084 55.6566 27.772 56.1366 27.184V28H57.5646V21.592H56.0646ZM67.3765 21.52C66.3565 21.52 65.4925 21.928 64.9765 22.588C64.5325 21.868 63.7525 21.52 62.8165 21.52C61.9405 21.52 61.1965 21.832 60.7165 22.408V21.592H59.2885V28H60.7885V24.748C60.7885 23.476 61.4605 22.828 62.4565 22.828C63.3685 22.828 63.8965 23.38 63.8965 24.52V28H65.3965V24.748C65.3965 23.476 66.0805 22.828 67.0645 22.828C67.9765 22.828 68.5045 23.38 68.5045 24.52V28H70.0045V24.328C70.0045 22.396 68.9245 21.52 67.3765 21.52Z" fill="white" />
    <path fill-rule="evenodd" clip-rule="evenodd" d="M310.798 71.651L200.551 8L109 166.572L149.23 189.798H156.858L114.211 165.176L201.948 13.2116L310.798 76.0564V71.651ZM310.798 95.4836V133.322L277.023 142.372L275.049 135.002L285.838 116.314L274.784 119.276L263.995 137.964L249.256 141.913L262.086 189.798H234.442L223.463 148.825L146.085 169.558L139.174 143.765L216.552 123.032L213.142 110.305L223.931 91.6169L220.969 80.563L210.18 99.2508L202.811 101.225L192.938 64.3788L181.883 67.3399C191.862 55.4513 216.149 36.0429 233.469 53.5177C237.996 58.624 245.71 84.4649 249.001 96.7471L237.947 99.709L242.345 116.121L260.768 111.184L257.806 100.13C270.088 96.8393 296.324 90.5992 303.01 91.9671C306.052 92.7676 308.628 93.9681 310.798 95.4836ZM310.668 175.85L304.511 186.514C307.82 183.982 310.112 180.187 310.668 175.85Z" fill="#444444" />
    <path d="M260.727 168.22C260.132 168.22 259.628 168.458 259.327 168.843C259.068 168.423 258.613 168.22 258.067 168.22C257.556 168.22 257.122 168.402 256.842 168.738V168.262H256.009V172H256.884V170.103C256.884 169.361 257.276 168.983 257.857 168.983C258.389 168.983 258.697 169.305 258.697 169.97V172H259.572V170.103C259.572 169.361 259.971 168.983 260.545 168.983C261.077 168.983 261.385 169.305 261.385 169.97V172H262.26V169.858C262.26 168.731 261.63 168.22 260.727 168.22ZM264.567 168.22C263.965 168.22 263.384 168.374 262.985 168.682L263.328 169.319C263.608 169.088 264.042 168.948 264.462 168.948C265.085 168.948 265.393 169.249 265.393 169.76V169.816H264.427C263.293 169.816 262.873 170.306 262.873 170.929C262.873 171.58 263.412 172.049 264.266 172.049C264.826 172.049 265.232 171.867 265.442 171.545V172H266.268V169.809C266.268 168.731 265.645 168.22 264.567 168.22ZM264.448 171.412C264 171.412 263.734 171.209 263.734 170.894C263.734 170.621 263.895 170.397 264.49 170.397H265.393V170.831C265.246 171.216 264.875 171.412 264.448 171.412ZM268.306 172.049C269.356 172.049 270 171.594 270 170.894C270 169.431 267.69 170.103 267.69 169.347C267.69 169.102 267.942 168.927 268.474 168.927C268.831 168.927 269.188 168.997 269.545 169.207L269.881 168.542C269.545 168.339 268.978 168.22 268.481 168.22C267.473 168.22 266.836 168.682 266.836 169.389C266.836 170.88 269.146 170.208 269.146 170.922C269.146 171.181 268.915 171.335 268.362 171.335C267.893 171.335 267.389 171.181 267.06 170.964L266.724 171.629C267.06 171.867 267.683 172.049 268.306 172.049ZM272.515 171.174C272.382 171.279 272.207 171.328 272.025 171.328C271.689 171.328 271.507 171.132 271.507 170.768V168.99H272.508V168.29H271.507V167.436H270.632V168.29H270.016V168.99H270.632V170.789C270.632 171.615 271.101 172.049 271.92 172.049C272.235 172.049 272.55 171.965 272.76 171.797L272.515 171.174ZM276.631 170.152C276.631 168.983 275.833 168.22 274.741 168.22C273.628 168.22 272.809 169.018 272.809 170.131C272.809 171.244 273.621 172.049 274.874 172.049C275.518 172.049 276.043 171.839 276.379 171.44L275.91 170.901C275.644 171.174 275.315 171.307 274.895 171.307C274.244 171.307 273.789 170.957 273.684 170.411H276.617C276.624 170.327 276.631 170.222 276.631 170.152ZM274.741 168.92C275.315 168.92 275.728 169.291 275.798 169.83H273.677C273.761 169.284 274.174 168.92 274.741 168.92ZM278.064 168.808V168.262H277.231V172H278.106V170.187C278.106 169.424 278.526 169.032 279.191 169.032C279.254 169.032 279.317 169.039 279.394 169.053V168.22C278.771 168.22 278.316 168.416 278.064 168.808ZM281.577 172.049C282.305 172.049 282.886 171.734 283.173 171.174L282.501 170.782C282.277 171.139 281.941 171.3 281.57 171.3C280.926 171.3 280.436 170.859 280.436 170.131C280.436 169.41 280.926 168.962 281.57 168.962C281.941 168.962 282.277 169.123 282.501 169.48L283.173 169.088C282.886 168.521 282.305 168.22 281.577 168.22C280.394 168.22 279.554 169.011 279.554 170.131C279.554 171.251 280.394 172.049 281.577 172.049ZM285.118 168.22C284.516 168.22 283.935 168.374 283.536 168.682L283.879 169.319C284.159 169.088 284.593 168.948 285.013 168.948C285.636 168.948 285.944 169.249 285.944 169.76V169.816H284.978C283.844 169.816 283.424 170.306 283.424 170.929C283.424 171.58 283.963 172.049 284.817 172.049C285.377 172.049 285.783 171.867 285.993 171.545V172H286.819V169.809C286.819 168.731 286.196 168.22 285.118 168.22ZM284.999 171.412C284.551 171.412 284.285 171.209 284.285 170.894C284.285 170.621 284.446 170.397 285.041 170.397H285.944V170.831C285.797 171.216 285.426 171.412 284.999 171.412ZM288.535 168.808V168.262H287.702V172H288.577V170.187C288.577 169.424 288.997 169.032 289.662 169.032C289.725 169.032 289.788 169.039 289.865 169.053V168.22C289.242 168.22 288.787 168.416 288.535 168.808ZM293.119 166.806V168.724C292.825 168.381 292.398 168.22 291.915 168.22C290.83 168.22 290.025 168.969 290.025 170.131C290.025 171.293 290.83 172.049 291.915 172.049C292.426 172.049 292.86 171.874 293.154 171.517V172H293.994V166.806H293.119ZM292.02 171.3C291.39 171.3 290.907 170.845 290.907 170.131C290.907 169.417 291.39 168.962 292.02 168.962C292.65 168.962 293.133 169.417 293.133 170.131C293.133 170.845 292.65 171.3 292.02 171.3Z" fill="white" />
    <circle cx="283" cy="153" r="12" fill="#F79E1B" />
    <circle cx="267" cy="153" r="12" fill="#EB001B" />
    <path fill-rule="evenodd" clip-rule="evenodd" d="M275 161.889C277.455 159.692 279 156.498 279 152.944C279 149.39 277.455 146.197 275 144C272.545 146.197 271 149.39 271 152.944C271 156.498 272.545 159.692 275 161.889Z" fill="#FF5F00" />
    <path d="M188.486 148.19V148.18H187.731L186.836 151.015L185.946 148.18H185.191V148.19L186.471 152H187.201L188.486 148.19ZM191.377 152V151.99L190.087 148.18H189.307L188.017 151.99V152H188.767L188.982 151.3H190.412L190.622 152H191.377ZM190.217 150.715H189.172L189.692 149.015L190.217 150.715ZM194.11 152V151.375H192.36V148.18H191.625V152H194.11ZM195.114 152V148.18H194.379V152H195.114ZM198.633 150.965V149.23C198.633 148.555 198.253 148.18 197.568 148.18H195.613V152H197.568C198.253 152 198.633 151.635 198.633 150.965ZM197.893 150.89C197.893 151.22 197.718 151.385 197.373 151.385H196.348V148.795H197.378C197.713 148.795 197.893 148.955 197.893 149.29V150.89Z" fill="white" />
    <path d="M188.312 153.8V153.18H185.332V153.8H186.452V157H187.187V153.8H188.312ZM191.584 157V153.18H190.844V154.73H189.304V153.18H188.569V157H189.304V155.385H190.844V157H191.584ZM195.144 157V156.97L194.049 155.46H194.624C194.839 155.455 194.964 155.33 194.964 155.11V153.535C194.964 153.315 194.839 153.18 194.624 153.18H192.079V157H192.814V153.785H194.229V154.945H193.109V155.345L194.294 157H195.144ZM198.433 156.645V153.18H197.698V156.385H196.158V153.18H195.423V156.645C195.423 156.865 195.548 157 195.768 157H198.088C198.303 157 198.433 156.865 198.433 156.645Z" fill="white" />
    <rect x="16.25" y="71.25" width="36.5" height="27.5" rx="3.75" fill="#949494" stroke="#B4B4B4" stroke-width="0.5" />
    <rect x="16.25" y="78.25" width="13.5" height="13.5" rx="1.75" fill="#949494" stroke="#B4B4B4" stroke-width="0.5" />
    <rect x="39.25" y="78.25" width="13.5" height="13.5" rx="1.75" fill="#949494" stroke="#B4B4B4" stroke-width="0.5" />
    <rect x="29.75" y="82.25" width="9.5" height="5.5" fill="#949494" stroke="#B4B4B4" stroke-width="0.5" />
    <path d="M27 71.5V78" stroke="#B4B4B4" stroke-width="0.5" />
    <path d="M27 92V98.5" stroke="#B4B4B4" stroke-width="0.5" />
    <path d="M16 85H30" stroke="#B4B4B4" stroke-width="0.5" />
    <path d="M39 85H53" stroke="#B4B4B4" stroke-width="0.5" />
    <path d="M42 71.5V78" stroke="#B4B4B4" stroke-width="0.5" />
    <path d="M42 92V98.5" stroke="#B4B4B4" stroke-width="0.5" />
    <path d="M30.3753 56.9653C29.9441 57.3103 29.8741 57.9396 30.2191 58.3708C30.5641 58.8021 31.1934 58.872 31.6247 58.527L30.3753 56.9653ZM38.8753 58.527C39.3066 58.872 39.9359 58.8021 40.2809 58.3708C40.6259 57.9396 40.556 57.3103 40.1247 56.9653L38.8753 58.527ZM28.2929 53.5395C27.9024 53.93 27.9024 54.5632 28.2929 54.9537C28.6834 55.3442 29.3166 55.3442 29.7071 54.9537L28.2929 53.5395ZM40.2929 54.9538C40.6834 55.3443 41.3166 55.3443 41.7071 54.9538C42.0976 54.5633 42.0976 53.9301 41.7071 53.5396L40.2929 54.9538ZM24.3273 47.0102C23.9187 47.3817 23.8886 48.0142 24.2601 48.4228C24.6316 48.8315 25.264 48.8616 25.6727 48.4901L24.3273 47.0102ZM44.3273 48.4899C44.736 48.8614 45.3684 48.8313 45.7399 48.4227C46.1114 48.014 46.0813 47.3816 45.6727 47.0101L44.3273 48.4899ZM26.3356 49.9995C25.9229 50.3664 25.8857 50.9985 26.2526 51.4112C26.6195 51.824 27.2516 51.8612 27.6644 51.4943L26.3356 49.9995ZM42.3356 51.4942C42.7484 51.8611 43.3805 51.824 43.7474 51.4112C44.1143 50.9984 44.0771 50.3663 43.6644 49.9994L42.3356 51.4942ZM31.6247 58.527C33.7595 56.8193 36.7405 56.8192 38.8753 58.527L40.1247 56.9653C37.2595 54.6732 33.2405 54.6732 30.3753 56.9653L31.6247 58.527ZM29.7071 54.9537C30.9771 53.6837 32.9485 52.9966 35 52.9966C37.0515 52.9966 39.0229 53.6837 40.2929 54.9538L41.7071 53.5396C39.9771 51.8096 37.4485 50.9966 35 50.9966C32.5515 50.9966 30.0229 51.8095 28.2929 53.5395L29.7071 54.9537ZM25.6727 48.4901C30.7913 43.8367 39.2087 43.8367 44.3273 48.4899L45.6727 47.0101C39.7913 41.6633 30.2087 41.6633 24.3273 47.0102L25.6727 48.4901ZM27.6644 51.4943C31.7855 47.8311 38.2145 47.8311 42.3356 51.4942L43.6644 49.9994C38.7855 45.6627 31.2145 45.6628 26.3356 49.9995L27.6644 51.4943Z" fill="white" />
</svg>
