<svg width="24" height="24" viewBox="0 0 24 24" fill="none" xmlns="http://www.w3.org/2000/svg">
    <path fill-rule="evenodd" clip-rule="evenodd" d="M0 0L24 0V24H0L0 0ZM0.500111 0.500166L23.5001 0.500166V23.5002H0.500111L0.500111 0.500166ZM12.5371 6.70579C13.7156 5.52728 16.2848 3.09953 17.1334 2.81662C20.2447 1.96809 21.7296 5.7629 22.0831 7.76637L21.0224 6.70579L17.4869 10.2413L16.7798 9.53422V6.70579L15.7191 7.76645L15.7191 10.5949L14.3049 12.0091L21.9225 19.6267L19.4476 22.1016L11.83 14.484L4.4054 21.9086L1.93052 19.4337L9.35513 12.0091L8.13392 10.7879V7.95946L7.07326 6.8988L7.07326 9.72723L6.36615 10.4343L2.83062 6.8988L1.76988 7.95938C2.12343 5.95591 3.60836 2.1611 6.71962 3.00963C7.56822 3.29254 10.1374 5.72029 11.3159 6.8988L10.2552 7.95946L11.83 9.53423L13.5978 7.76645L12.5371 6.70579Z" fill="black" />
</svg>
